<?xml version="1.0" encoding="UTF-8" standalone="no"?>
<svg width="31px" height="38px" viewBox="0 0 31 38" version="1.1" xmlns="http://www.w3.org/2000/svg" xmlns:xlink="http://www.w3.org/1999/xlink">
    <!-- Generator: Sketch 42 (36781) - http://www.bohemiancoding.com/sketch -->
    <title>Path 2</title>
    <desc>Created with Sketch.</desc>
    <defs>
        <path d="M357.508966,130 C357.508966,130 350.381437,121.755005 346.92836,116.218702 C345.971026,114.683811 345.439423,112.897839 345.246649,112.110445 C344.358549,108.482947 345.31185,98 357.605048,98 C369.898245,98 369.992735,109.148736 369.992735,109.148736 C369.992735,109.148736 370.215078,112.968267 368.199725,116.218702 C366.184371,119.469137 357.508966,130 357.508966,130 Z M357.58446,117.256898 C361.973366,117.256898 365.531277,113.824226 365.531277,109.58981 C365.531277,105.355394 361.973366,101.922722 357.58446,101.922722 C353.195554,101.922722 349.637643,105.355394 349.637643,109.58981 C349.637643,113.824226 353.195554,117.256898 357.58446,117.256898 Z" id="path-1"></path>
        <filter x="-50%" y="-50%" width="200%" height="200%" filterUnits="objectBoundingBox" id="filter-2">
            <feOffset dx="0" dy="2" in="SourceAlpha" result="shadowOffsetOuter1"></feOffset>
            <feGaussianBlur stdDeviation="1.5" in="shadowOffsetOuter1" result="shadowBlurOuter1"></feGaussianBlur>
            <feColorMatrix values="0 0 0 0 0   0 0 0 0 0   0 0 0 0 0  0 0 0 0.266247736 0" type="matrix" in="shadowBlurOuter1"></feColorMatrix>
        </filter>
    </defs>
    <g id="Symbols" stroke="none" stroke-width="1" fill="none" fill-rule="evenodd">
        <g id="Map" transform="translate(-683.000000, -97.000000)">
            <g id="Group">
                <g transform="translate(341.000000, 0.000000)">
                    <g id="Path-2">
                        <use fill="black" fill-opacity="1" filter="url(#filter-2)" xlink:href="#path-1"></use>
                        <use fill="#254064" fill-rule="evenodd" xlink:href="#path-1"></use>
                    </g>
                </g>
            </g>
        </g>
    </g>
</svg>