<?xml version="1.0" encoding="UTF-8" standalone="no"?>
<svg width="30px" height="39px" viewBox="0 0 30 39" version="1.1" xmlns="http://www.w3.org/2000/svg" xmlns:xlink="http://www.w3.org/1999/xlink">
    <!-- Generator: Sketch 42 (36781) - http://www.bohemiancoding.com/sketch -->
    <title>poi</title>
    <desc>Created with Sketch.</desc>
    <defs></defs>
    <g id="Symbols" stroke="none" stroke-width="1" fill="none" fill-rule="evenodd">
        <g id="Map" transform="translate(-365.000000, -111.000000)" fill="#254064">
            <g id="Group">
                <g transform="translate(341.000000, 0.000000)">
                    <g id="poi" transform="translate(24.000000, 111.000000)">
                        <g>
                            <path d="M15.0107593,39 C15.0107593,39 6.45772401,28.9514119 2.31403249,22.2040429 C1.16523072,20.3333947 0.527307248,18.1567412 0.295979338,17.1971051 C-0.769741,12.7760918 0.37421964,4.67099823e-15 15.126057,0 C29.8778944,-4.67099843e-15 29.9912818,13.5875218 29.9912818,13.5875218 C29.9912818,13.5875218 30.2580937,18.2425755 27.8396697,22.2040429 C25.4212457,26.1655104 15.0107593,39 15.0107593,39 Z M15.101352,23.4693444 C20.3680392,23.4693444 24.6375327,19.2857752 24.6375327,14.1250811 C24.6375327,8.96438697 20.3680392,4.78081778 15.101352,4.78081778 C9.83466481,4.78081778 5.56517128,8.96438697 5.56517128,14.1250811 C5.56517128,19.2857752 9.83466481,23.4693444 15.101352,23.4693444 Z" id="Path-2"></path>
                            <circle id="Combined-Shape" cx="15" cy="14" r="8"></circle>
                        </g>
                        <circle id="Combined-Shape" cx="15" cy="14" r="8"></circle>
                    </g>
                </g>
            </g>
        </g>
    </g>
</svg>